<svg width="103" height="103" viewBox="0 0 103 103" fill="none" xmlns="http://www.w3.org/2000/svg">
<path d="M100.055 14.0811C98.5396 12.5632 96.0811 12.5606 94.5659 14.0746L47.996 60.5216L31.1937 42.2727C29.7418 40.6967 27.2872 40.5945 25.7086 42.0462C24.1312 43.498 24.0302 45.954 25.482 47.5313L45.0211 68.7511C45.7366 69.5289 46.7381 69.9805 47.794 70.0024C47.8224 70.0036 47.8497 70.0036 47.8769 70.0036C48.9031 70.0036 49.8902 69.5961 50.6175 68.8715L100.047 19.5713C101.566 18.0575 101.569 15.5989 100.055 14.0811Z" fill="#8900CE"/>
<path d="M99.118 47.618C96.9739 47.618 95.2362 49.3557 95.2362 51.5C95.2362 75.6171 75.6171 95.2362 51.5 95.2362C27.3843 95.2362 7.76383 75.6171 7.76383 51.5C7.76383 27.3843 27.3843 7.76383 51.5 7.76383C53.6441 7.76383 55.382 6.0261 55.382 3.88201C55.382 1.73772 53.6441 0 51.5 0C23.1026 0 0 23.1026 0 51.5C0 79.8962 23.1026 103 51.5 103C79.8962 103 103 79.8962 103 51.5C103 49.3559 101.262 47.618 99.118 47.618Z" fill="#8900CE"/>
</svg>
