<svg width="524" height="410" viewBox="0 0 524 410" fill="none" xmlns="http://www.w3.org/2000/svg">
<g clip-path="url(#clip0)">
<path opacity="0.1" d="M183.811 402.059C234.292 402.059 275.215 394.307 275.215 384.744C275.215 375.181 234.292 367.429 183.811 367.429C133.329 367.429 92.4062 375.181 92.4062 384.744C92.4062 394.307 133.329 402.059 183.811 402.059Z" fill="#8900CE"/>
<path opacity="0.1" d="M304.447 57.8211C270.854 56.6585 238.86 45.8107 208.309 33.9456C177.757 22.0805 147.497 8.93854 114.709 2.65304C93.6197 -1.39022 69.4995 -1.96635 52.5111 9.32781C36.1559 20.2275 30.872 38.9906 28.0328 56.4145C25.8943 69.5253 24.6382 83.3264 30.493 95.6015C34.5624 104.124 41.7772 111.287 46.7704 119.451C64.143 147.853 51.8623 182.877 33.0416 210.609C24.2178 223.616 13.9665 236.042 7.15144 249.874C0.33634 263.706 -2.81428 279.609 3.14958 293.758C9.05635 307.772 23.1381 318.277 38.393 325.673C69.375 340.699 105.869 344.997 141.481 347.437C220.288 352.824 299.511 350.494 378.525 348.153C407.769 347.291 437.136 346.414 465.902 341.893C481.878 339.381 498.368 335.395 509.969 325.772C524.689 313.559 528.338 292.881 518.471 277.569C501.924 251.877 456.185 245.498 444.605 217.933C438.242 202.756 444.777 185.856 454.031 171.785C473.88 141.593 507.146 115.107 508.895 80.6015C510.099 56.9024 494.107 33.167 469.38 21.9507C443.463 10.1946 407.519 11.6738 388.408 31.1324C368.71 51.1463 334.11 58.854 304.447 57.8211Z" fill="#8900CE"/>
<path d="M277.753 187.755L261.855 177.037L269.874 165.099L227.883 161.752L212.794 173.419L193.906 162.831L178.153 164.726L177.966 160.573C177.771 156.245 177.336 151.93 176.663 147.649C176.731 146.352 176.777 144.862 176.772 143.243C176.772 136.418 175.848 127.371 171.789 121.34L172.724 112.942L165.146 103.988C166.363 101.564 167.75 99.2296 169.298 97.0021C169.558 96.6284 169.817 96.2651 170.097 95.9122C179.933 95.2011 187.693 87.1146 187.693 77.227C187.693 76.7702 187.693 76.3135 187.641 75.8619C187.641 75.6803 187.605 75.4934 187.584 75.3117C188.544 75.8308 189.515 76.3498 190.486 76.8688C190.667 77.1284 190.875 77.3879 191.103 77.6941L191.15 77.7512L191.441 78.1093L191.534 78.2183C191.638 78.3429 191.747 78.4623 191.856 78.5868L191.928 78.6699C192.204 78.9761 192.494 79.2875 192.806 79.5938C192.843 79.6239 192.877 79.6569 192.91 79.6924L193.299 80.0557L193.408 80.1543C193.74 80.4502 194.093 80.7356 194.446 81.0055L194.56 81.0886L195.006 81.3948L195.152 81.4882C195.323 81.592 195.5 81.701 195.671 81.7997L195.733 81.836C195.936 81.945 196.143 82.0488 196.351 82.1474L196.455 82.1889C196.631 82.2651 196.804 82.3377 196.974 82.4069L197.135 82.464C197.316 82.5263 197.493 82.5834 197.68 82.6353L197.794 82.6664C198.022 82.7235 198.251 82.7703 198.484 82.8066H198.51C198.73 82.8422 198.952 82.8647 199.174 82.8741H199.325C199.524 82.8845 199.723 82.8845 199.922 82.8741H200.052C200.301 82.8597 200.548 82.8303 200.794 82.7858C201.955 82.6331 203.07 82.2331 204.064 81.6128C204.317 81.4437 204.541 81.2351 204.728 80.9952C205.766 79.6353 204.624 78.1457 204.624 78.1457C204.22 77.1803 201.593 76.5003 201.593 76.5003C201.593 76.5003 193.288 73.0332 193.288 70.2719C193.288 67.5107 191.212 53.1854 169.781 49.9103C169.781 49.9103 155.839 49.1265 151.92 56.5902L151.837 57.4622C150.685 58.1836 149.73 59.6317 148.593 60.0574C148.102 60.1628 147.628 60.3376 147.187 60.5764V60.4778C147.055 60.5925 146.948 60.7318 146.87 60.8878C146.626 61.3736 146.479 61.9027 146.439 62.4449C146.322 63.1073 146.092 63.7446 145.759 64.329C145.666 64.4951 145.562 64.6546 145.448 64.8065L145.359 64.9466C145.962 64.9936 146.567 64.8957 147.124 64.6612C147.036 65.3718 146.862 66.069 146.605 66.7373C146.935 66.748 147.261 66.6636 147.545 66.4943C147.828 66.325 148.057 66.0779 148.204 65.7823V65.7408L148.271 65.6473C148.402 65.4071 148.51 65.1551 148.593 64.8947L148.536 64.957C148.64 64.6197 148.733 64.2771 148.847 63.9449C148.9 63.7578 148.986 63.5819 149.102 63.4259C149.24 63.2862 149.41 63.1811 149.596 63.1189C149.783 63.0566 149.982 63.0391 150.176 63.0677L149.963 67.5678H150.057C149.932 67.8951 149.779 68.2111 149.6 68.5124C148.863 69.7062 147.524 70.5211 147.031 71.829C146.818 72.4599 146.737 73.1276 146.792 73.791C146.792 74.1802 146.839 74.5747 146.87 74.964V74.9328C146.943 75.9709 146.963 76.9571 146.403 77.7927C146.019 78.3637 145.401 78.7945 145.188 79.4432C145.129 79.624 145.103 79.8138 145.11 80.0038C145.152 80.5726 145.271 81.1331 145.463 81.6699C145.466 81.6596 145.466 81.649 145.463 81.6388C145.593 82.0336 145.623 82.4543 145.552 82.8637C145.318 83.9017 144.057 84.7685 144.119 85.7599C144.115 85.8903 144.135 86.0203 144.176 86.144C144.419 86.6282 144.839 87.0001 145.349 87.182C146.149 87.6371 147.068 87.8397 147.986 87.7634C148.33 87.7012 148.662 87.5875 148.972 87.426C148.609 88.2616 148.235 89.0869 147.856 89.8706C147.799 89.9952 147.737 90.1198 147.674 90.2443C147.674 90.2443 144.467 88.1007 142.645 92.471C142.113 93.3792 141.733 94.3679 141.519 95.3983C141.427 95.8105 141.299 96.2136 141.134 96.6025C140.326 97.9717 139.115 99.059 137.667 99.7167C133.951 101.419 118.94 120.141 118.675 124.988C118.545 126.881 118.225 128.755 117.72 130.584C116.539 134.889 116.235 139.388 116.827 143.814C117.013 145.244 117.32 146.656 117.746 148.034C119.34 152.876 120.404 161.912 120.404 161.912L122.127 177.598C122.063 179.762 122.157 181.929 122.407 184.08C120.648 186.089 113.583 194.461 116.282 196.74C118.359 198.535 121.992 198.24 124.032 197.871C122.314 202.122 119.61 209.513 119.251 214.589C118.732 222.1 120.139 232.049 122.366 235.87C124.592 239.69 132.015 249.489 132.015 249.489C132.015 249.489 131.667 262.932 134.319 267.816C136.972 272.7 138.041 282.832 138.041 282.832C138.041 282.832 140.517 291.385 139.276 294.531C138.036 297.676 141.576 300.292 137.859 302.384C134.143 304.475 129.388 351.619 129.388 351.619C129.388 351.619 127.473 382.517 129.388 384.09C129.491 384.164 129.6 384.229 129.715 384.282V394.663C129.715 394.663 128.387 396.843 133.79 397.284C137.491 397.58 147.981 398.249 154.204 398.638L159.026 398.939C159.026 398.939 170.445 401.213 175.49 398.939C180.535 396.666 189.479 396.718 188.15 390.713C187.974 389.895 187.738 389.092 187.444 388.31C185.985 384.583 183.51 384.157 178.947 383.119C178.682 383.062 178.428 383.01 178.194 382.969C173.388 382.133 171.81 384.37 169.116 381.458C166.775 378.941 159.322 376.123 156.784 375.23C156.846 375.043 156.924 374.861 156.986 374.669C156.267 374.548 155.599 374.221 155.06 373.73L161.938 374.166L166.033 374.42C166.033 374.42 175.739 376.356 180.047 374.42C184.356 372.484 191.934 372.536 190.802 367.434C190.653 366.739 190.454 366.055 190.205 365.389C188.965 362.223 186.857 361.875 182.98 360.998C182.757 360.951 182.549 360.905 182.342 360.868C178.257 360.157 176.918 362.057 174.629 359.586C172.667 357.479 166.474 355.117 164.248 354.313C164.248 353.161 162.691 351.521 161.71 349.875C160.557 347.955 162.685 341.233 162.685 341.233L163.9 313.346C164.362 313.14 164.852 313 165.353 312.93C165.353 312.93 170.845 307.688 169.604 302.103C169.351 300.414 169.22 298.709 169.21 297.001C171.016 295.325 173.502 292.849 174.208 291.323C175.36 288.837 174.208 276.79 174.208 276.79V230.726L183.395 231.655L191.731 232.511L194.269 232.771L202.605 233.612L221.763 235.548L239.027 232.278L246.496 230.866L261.855 227.959V190.381L277.753 187.755ZM151.308 63.2338L150.239 63.1196C150.591 63.1352 150.965 63.2027 151.308 63.2338Z" fill="url(#paint0_linear)"/>
<path d="M240.491 212.155C235.3 219.582 216.64 215.648 216.64 215.648L202.18 202.117L200.233 200.285L203.498 193.35C203.498 193.35 204.536 193.636 206.316 194.144C215.664 196.859 244.871 205.911 240.491 212.155Z" fill="#EFB7B9"/>
<path opacity="0.1" d="M206.306 194.144C205.668 196.366 203.918 199.693 202.18 202.117L200.233 200.285L203.498 193.35C203.498 193.35 204.546 193.636 206.306 194.144Z" fill="black"/>
<path d="M156.711 115.947C156.711 115.947 143.382 121.859 144.036 136.376C144.507 145.729 145.526 155.046 147.088 164.279C147.088 164.279 144.363 186.125 155.709 191.757C167.056 197.388 177.556 202.018 177.556 202.018C177.556 202.018 195.308 203.928 197.514 204.717C199.719 205.506 206.612 193.444 205.341 191.565C204.069 189.686 187.776 185.746 185.7 182.611C183.624 179.477 178.823 177.541 178.823 177.541C178.823 177.541 173.866 174.541 173.528 171.831C173.191 169.122 174.499 167.103 174.831 165.914C175.163 164.726 176.004 153.25 176.004 153.25C176.004 153.25 181.6 112.402 156.711 115.947Z" fill="#DCE6F2"/>
<path opacity="0.1" d="M165.509 163.682C165.509 163.682 147.223 166.745 148.993 173.144C148.993 173.144 155.631 166.236 165.509 163.682Z" fill="black"/>
<path opacity="0.1" d="M165.649 166.272C165.649 166.272 155.595 174.478 157.562 174.899C159.529 175.319 165.649 166.272 165.649 166.272Z" fill="black"/>
<path opacity="0.1" d="M170.481 169.132C170.481 169.132 167.788 174.65 169.443 174.276C171.099 173.902 170.481 169.132 170.481 169.132Z" fill="black"/>
<path opacity="0.1" d="M206.981 194.731L205.87 194.414C206.187 193.376 206.275 192.535 206.016 192.146C204.744 190.267 188.461 186.333 186.39 183.193C184.319 180.053 179.513 178.122 179.513 178.122C179.513 178.122 174.556 175.122 174.219 172.412C173.881 169.703 175.189 167.684 175.521 166.495C175.854 165.307 176.694 153.826 176.694 153.826C176.694 153.826 182.274 112.983 157.386 116.528C157.386 116.528 144.057 122.445 144.706 136.962C145.176 146.315 146.197 155.633 147.763 164.866C147.763 164.866 145.038 186.712 156.384 192.343C167.731 197.975 178.231 202.605 178.231 202.605C178.231 202.605 195.977 204.509 198.188 205.304C199.024 205.605 200.534 204.053 202.014 201.919L202.855 202.703L217.315 216.229C217.315 216.229 235.975 220.169 241.165 212.741C245.551 206.492 216.35 197.44 206.981 194.731Z" fill="black"/>
<path d="M149.039 61.4587C148.531 61.5581 148.045 61.7461 147.602 62.0141C147.083 62.4449 147.083 63.1819 146.953 63.8255C146.8 64.7208 146.445 65.5694 145.915 66.3065C146.505 66.3498 147.098 66.252 147.643 66.021C147.554 66.7314 147.38 67.4285 147.124 68.0972C147.448 68.1054 147.767 68.0202 148.043 67.8517C148.319 67.6832 148.541 67.4387 148.681 67.1473C148.956 66.5625 149.173 65.9523 149.33 65.3255C149.379 65.1381 149.463 64.9618 149.579 64.8065C150.057 64.2408 150.944 64.4951 151.681 64.5677C152.295 64.6195 152.911 64.5062 153.466 64.2397C154.021 63.9732 154.494 63.5632 154.837 63.0522C155.621 61.8636 155.668 58.8221 153.799 58.5003C151.848 58.1785 150.633 60.867 149.039 61.4587Z" fill="#965D7B"/>
<g opacity="0.1">
<path opacity="0.1" d="M147.55 62.6525C147.597 62.3982 147.628 62.1335 147.685 61.8792C147.192 62.31 147.166 63.0418 147.036 63.6906C146.971 64.0649 146.868 64.4318 146.73 64.7858C147.138 64.1344 147.417 63.4099 147.55 62.6525Z" fill="black"/>
<path opacity="0.1" d="M147.716 66.9397C147.974 66.2719 148.149 65.5745 148.235 64.8636C147.715 65.0824 147.153 65.18 146.59 65.1491C146.426 65.5141 146.226 65.8619 145.993 66.1871C146.581 66.2327 147.172 66.1366 147.716 65.9069C147.63 66.6178 147.455 67.3152 147.197 67.983C147.52 67.9906 147.839 67.9051 148.115 67.7367C148.391 67.5683 148.613 67.3241 148.754 67.0332C148.883 66.7972 148.988 66.5485 149.065 66.291C148.913 66.5038 148.71 66.6748 148.474 66.7882C148.238 66.9016 147.977 66.9537 147.716 66.9397Z" fill="black"/>
<path opacity="0.1" d="M152.273 63.4103C151.536 63.3376 150.643 63.0833 150.166 63.6491C150.052 63.8056 149.968 63.9815 149.917 64.1681C149.87 64.303 149.828 64.4432 149.792 64.5833C150.285 64.1941 151.084 64.4017 151.754 64.4691C152.367 64.5192 152.983 64.4052 153.537 64.1389C154.092 63.8725 154.566 63.4635 154.91 62.9536C155.067 62.7015 155.184 62.4266 155.258 62.1387C154.902 62.5786 154.444 62.9246 153.924 63.1463C153.403 63.368 152.837 63.4587 152.273 63.4103Z" fill="black"/>
</g>
<path d="M164.663 104.326L172.578 113.845L171.546 123.452L161.979 108.478L164.663 104.326Z" fill="#DCE6F2"/>
<path opacity="0.1" d="M172.573 113.845L171.603 122.881L171.54 123.452L162.909 109.936L161.979 108.478L162.249 108.058L164.658 104.326L165.192 104.969L172.573 113.845Z" fill="black"/>
<path d="M176.684 91.4381C174.006 92.2063 171.447 94.843 169.22 98.0454C167.715 100.255 166.369 102.569 165.192 104.969C164.46 106.433 163.817 107.84 163.282 109.064L162.909 109.936C162.005 112.07 161.502 113.497 161.502 113.497C161.502 113.497 140.999 98.0817 144.244 97.0437C145.334 96.6959 146.766 94.3603 148.183 91.4174L148.36 91.0437C149.258 89.1544 150.14 87.0471 150.924 85.0644C152.528 80.99 153.716 77.4502 153.716 77.4502C153.716 77.4502 184.859 89.1025 176.684 91.4381Z" fill="#EFB7B9"/>
<path d="M188.949 76.5834C188.949 76.5834 193.683 85.1474 200.041 83.9796C206.4 82.8118 203.784 79.381 203.784 79.381L188.949 76.5834Z" fill="#444053"/>
<path d="M179.778 373.029C175.584 374.944 166.101 373.029 166.101 373.029L162.104 372.78C156.914 372.448 148.225 371.887 145.152 371.638C140.667 371.27 141.768 369.432 141.768 369.432V358.33L163.526 352.818C163.526 352.818 172.127 355.761 174.483 358.33C176.72 360.78 178.028 358.896 182.02 359.602C182.217 359.638 182.425 359.68 182.643 359.732C186.432 360.598 188.487 360.941 189.702 364.081C189.946 364.741 190.142 365.417 190.288 366.105C191.409 371.161 183.966 371.124 179.778 373.029Z" fill="#A36468"/>
<path opacity="0.1" d="M189.702 364.081C188.922 364.568 188.103 364.988 187.252 365.337C184.397 366.64 181.683 368.228 178.797 369.458C175.911 370.688 172.802 371.566 169.677 371.332C168.042 371.213 166.371 370.813 164.808 371.28C163.842 371.653 162.932 372.158 162.104 372.78C156.914 372.448 148.225 371.887 145.152 371.638C140.667 371.27 141.768 369.432 141.768 369.432V368.135C141.929 368.135 142.11 368.088 142.318 368.072C143.392 368.055 144.462 368.215 145.484 368.545C147.737 369.157 149.979 369.759 152.232 370.361C152.417 369.662 152.743 369.008 153.189 368.439C153.635 367.87 154.192 367.397 154.827 367.05C156.113 366.367 157.556 366.036 159.01 366.09C162.504 366.136 165.81 367.792 169.298 367.958C170.273 368.048 171.255 367.883 172.148 367.481C172.625 367.242 173.046 366.894 173.513 366.63C174.26 366.268 175.05 366.001 175.864 365.835C178.151 365.266 180.397 364.541 182.586 363.666C183.209 363.422 183.935 362.981 183.852 362.316C183.743 361.434 182.357 361.33 181.994 360.521C181.93 360.375 181.9 360.216 181.907 360.056C181.915 359.897 181.958 359.741 182.035 359.602C182.233 359.638 182.44 359.68 182.658 359.732C186.432 360.598 188.487 360.941 189.702 364.081Z" fill="black"/>
<path d="M175.345 397.32C170.414 399.573 159.254 397.32 159.254 397.32L154.557 397.045C148.474 396.656 138.228 396.007 134.61 395.701C129.331 395.265 130.629 393.105 130.629 393.105V380.021L156.233 373.533C156.233 373.533 166.355 376.995 169.127 380.021C171.758 382.901 173.279 380.685 177.997 381.515C178.231 381.557 178.475 381.609 178.729 381.666C183.188 382.704 185.606 383.093 187.034 386.789C187.323 387.565 187.553 388.361 187.724 389.171C189.011 395.119 180.276 395.073 175.345 397.32Z" fill="#A36468"/>
<path opacity="0.1" d="M187.023 386.789C186.106 387.362 185.143 387.856 184.143 388.268C180.784 389.799 177.587 391.668 174.192 393.116C170.798 394.564 167.139 395.592 163.459 395.322C161.538 395.182 159.571 394.699 157.749 395.259C156.607 395.704 155.533 396.305 154.557 397.045C148.474 396.656 138.228 396.007 134.61 395.701C129.331 395.265 130.629 393.105 130.629 393.105V391.579C130.844 391.544 131.06 391.52 131.278 391.507C132.542 391.484 133.802 391.671 135.004 392.062L142.941 394.201C143.162 393.376 143.549 392.605 144.078 391.934C144.607 391.264 145.267 390.709 146.019 390.303C147.531 389.496 149.231 389.106 150.944 389.171C155.055 389.228 158.943 391.175 163.049 391.372C164.192 391.476 165.343 391.285 166.391 390.817C166.957 390.531 167.429 390.121 168 389.815C168.878 389.385 169.808 389.071 170.767 388.881C173.444 388.205 176.072 387.352 178.636 386.327C179.367 386.036 180.224 385.517 180.125 384.739C179.995 383.701 178.366 383.576 177.935 382.621C177.862 382.449 177.829 382.262 177.838 382.075C177.847 381.888 177.898 381.706 177.987 381.541C178.22 381.583 178.464 381.635 178.719 381.692C183.177 382.688 185.596 383.093 187.023 386.789Z" fill="black"/>
<path d="M164.185 307.532L162.8 340.143C162.8 340.143 160.723 346.802 161.85 348.707C162.976 350.612 164.876 352.512 164.185 353.638C163.495 354.764 155.19 366.941 152.507 362.27C149.823 357.598 147.176 337.356 147.176 337.356L149.652 312.354L164.185 307.532Z" fill="#444053"/>
<path d="M170.196 226.283L174.047 231.432V276.214C174.047 276.214 175.174 288.152 174.047 290.617C172.921 293.083 167.211 298.013 167.211 298.013L162.41 273.359L163.448 247.278L170.196 226.283Z" fill="#444053"/>
<path opacity="0.1" d="M164.185 307.532L162.8 340.143C162.8 340.143 160.723 346.802 161.85 348.707C162.976 350.612 164.876 352.512 164.185 353.638C163.495 354.764 155.19 366.941 152.507 362.27C149.823 357.598 147.176 337.356 147.176 337.356L149.652 312.354L164.185 307.532Z" fill="black"/>
<path opacity="0.1" d="M170.196 226.283L174.047 231.432V276.214C174.047 276.214 175.174 288.152 174.047 290.617C172.921 293.083 167.211 298.013 167.211 298.013L162.41 273.359L163.448 247.278L170.196 226.283Z" fill="black"/>
<path d="M174.047 207.183V231.406L169.724 250.262C169.724 250.262 168.338 295.766 169.547 301.299C170.757 306.832 165.395 312.027 165.395 312.027C165.395 312.027 162.281 312.375 162.281 314.794C162.281 317.212 157.09 324.136 157.09 324.136L157.261 337.631C157.261 337.631 159.514 362.893 156.052 367.735C152.59 372.578 157.261 373.273 157.261 373.273C152.938 387.458 132.176 384.173 130.302 382.616C128.428 381.059 130.302 350.436 130.302 350.436C130.302 350.436 134.942 303.723 138.576 301.647C142.209 299.57 138.752 296.975 139.961 293.861C141.171 290.747 138.752 282.271 138.752 282.271C138.752 282.271 137.714 272.233 135.119 267.39C132.523 262.548 132.866 249.224 132.866 249.224C132.866 249.224 125.599 239.534 123.44 235.729C121.281 231.925 119.89 222.063 120.409 214.62C120.762 209.591 123.404 202.267 125.08 198.053C125.885 196.034 126.466 194.726 126.466 194.726L126.959 194.855L155.31 202.278L174.047 207.183Z" fill="#444053"/>
<path opacity="0.1" d="M176.684 91.4381C174.006 92.2063 171.447 94.8429 169.22 98.0454H168.639C165.375 98.0477 162.168 97.1884 159.343 95.5543C156.518 93.9202 154.174 91.5693 152.548 88.7391C151.869 87.5664 151.322 86.3217 150.918 85.028C152.522 80.9536 153.711 77.4138 153.711 77.4138C153.711 77.4138 184.859 89.1024 176.684 91.4381Z" fill="black"/>
<path d="M187.195 78.4623C187.199 81.3022 186.552 84.1053 185.303 86.6557C184.053 89.206 182.235 91.4355 179.988 93.1725C177.741 94.9095 175.125 96.1075 172.343 96.6744C169.56 97.2412 166.684 97.1618 163.936 96.4421C161.189 95.7224 158.644 94.3817 156.496 92.5233C154.349 90.6649 152.656 88.3384 151.55 85.723C150.443 83.1075 149.951 80.2729 150.113 77.4376C150.274 74.6022 151.084 71.8417 152.481 69.3688C153.043 68.364 153.7 67.4151 154.443 66.5349C155.667 65.0767 157.105 63.8131 158.709 62.7875C161.419 61.0659 164.528 60.0766 167.734 59.9161C170.94 59.7556 174.132 60.4294 177 61.8718C179.868 63.3142 182.312 65.4757 184.094 68.1453C185.877 70.8148 186.936 73.901 187.169 77.1024C187.179 77.5591 187.195 78.0107 187.195 78.4623Z" fill="#EFB7B9"/>
<path opacity="0.1" d="M171.603 122.881L171.54 123.452L162.909 109.957C162.005 112.09 161.502 113.518 161.502 113.518C161.502 113.518 140.999 98.0817 144.244 97.0437C145.334 96.6959 146.766 94.3602 148.183 91.4173L148.36 91.0436C149.865 95.5281 158.611 104.492 162.249 108.083C162.67 108.499 163.018 108.841 163.287 109.09L163.843 109.609L164.133 109.9C165.457 111.265 171.042 117.286 171.603 122.881Z" fill="black"/>
<path d="M178.054 168.67L177.11 199.07L176.944 204.484C176.944 204.484 165.753 203.445 155.31 202.304C146.901 201.385 138.975 200.394 137.755 199.812C136.198 199.08 132.861 198.515 130.229 198.157C128.195 197.881 126.596 197.736 126.596 197.736C126.596 197.736 125.999 197.913 125.08 198.079C123.077 198.442 119.558 198.738 117.507 196.958C114.886 194.679 121.774 186.4 123.492 184.413L123.871 183.982L123.222 177.987L121.535 162.442C121.535 162.442 120.497 153.489 118.94 148.687C118.524 147.322 118.223 145.925 118.042 144.509C117.463 140.124 117.76 135.668 118.914 131.398C119.407 129.584 119.72 127.726 119.848 125.85C120.108 121.049 134.771 102.493 138.404 100.807C140.039 100.044 141.354 98.733 142.121 97.1007C142.374 96.5875 142.564 96.0455 142.686 95.4865C144.244 88.7391 148.183 91.4173 148.183 91.4173C149.133 96.6959 163.838 110.668 163.838 110.668L164.128 110.959C165.587 112.454 172.085 119.471 171.623 125.461C171.531 127.69 171.864 129.917 172.604 132.021C175.595 141.439 177.315 151.214 177.717 161.087L178.054 168.67Z" fill="#DCE6F2"/>
<path opacity="0.1" d="M157.22 132.572C157.22 132.572 153.586 141.395 150.861 142.822C148.136 144.25 158.517 145.833 157.22 132.572Z" fill="black"/>
<path opacity="0.1" d="M159.945 149.051C159.945 149.051 151.64 150.089 151.64 151.646C151.64 153.203 159.945 149.051 159.945 149.051Z" fill="black"/>
<path opacity="0.1" d="M168.639 159.172C168.639 159.172 156.571 184.864 153.197 185.643C149.823 186.421 168.639 159.172 168.639 159.172Z" fill="black"/>
<path opacity="0.1" d="M163.609 111.971L153.628 116.31L141.581 98.1129C141.834 97.5996 142.024 97.0576 142.147 96.4987C143.704 89.7512 147.643 92.4295 147.643 92.4295C148.593 97.708 163.298 111.68 163.298 111.68L163.609 111.971Z" fill="black"/>
<path d="M164.128 110.933L154.147 115.272L142.1 97.0748C142.353 96.5616 142.543 96.0196 142.666 95.4606C144.223 88.7132 148.162 91.3914 148.162 91.3914C149.112 96.67 163.817 110.642 163.817 110.642L164.128 110.933Z" fill="#DCE6F2"/>
<path opacity="0.1" d="M176.944 204.484C176.944 204.484 165.753 203.445 155.31 202.304L174.047 207.208V212.918C173.227 213.66 172.516 214.044 172.054 213.847C169.895 212.939 152.273 210.084 152.273 210.084C152.273 210.084 142.038 204.894 130.992 198.665C130.724 198.517 130.464 198.354 130.214 198.177C128.926 197.303 127.816 196.191 126.944 194.902C124.904 191.949 123.907 188.155 123.476 184.433C123.234 182.301 123.144 180.153 123.207 178.008C123.26 175.575 123.482 173.149 123.871 170.746C122.803 161.442 122.283 152.084 122.314 142.719C122.444 128.186 136.069 122.995 136.069 122.995C161.113 120.789 153.348 161.274 153.348 161.274C153.348 161.274 151.9 172.693 151.505 173.861C151.111 175.028 149.694 176.975 149.886 179.7C150.078 182.425 154.863 185.684 154.863 185.684C154.863 185.684 159.535 187.874 161.46 191.118C162.862 193.511 171.966 196.755 177.11 199.07L176.944 204.484Z" fill="black"/>
<path opacity="0.1" d="M185.331 66.9397C185.341 67.7946 185.164 68.6413 184.812 69.4207C184.546 70.0567 184.238 70.674 183.888 71.2685C183.342 72.362 182.567 73.325 181.615 74.092C180.416 74.9484 178.9 75.1872 177.463 75.5349C176.025 75.8827 174.53 76.4381 173.71 77.663C173.265 78.4504 172.968 79.3122 172.833 80.2062C172.695 81.0995 172.339 81.9447 171.795 82.6665C171.511 83.0188 171.119 83.2671 170.679 83.3724C170.24 83.4776 169.778 83.4338 169.366 83.2478C168.931 82.9551 168.602 82.5314 168.426 82.0384C167.834 80.7045 167.684 79.2253 167.445 77.7875C167.206 76.3498 166.869 74.8706 165.986 73.7131C165.104 72.5557 163.542 71.7927 162.156 72.2443C161.692 72.4228 161.269 72.6932 160.912 73.0393C160.556 73.3854 160.272 73.7999 160.08 74.2581C159.696 75.1754 159.433 76.1384 159.296 77.1232C158.652 80.6457 157.893 84.1474 157.017 87.6284C156.991 87.7711 156.932 87.9059 156.846 88.0229C156.708 88.1604 156.522 88.2386 156.327 88.2409C155.164 88.3966 154.048 87.5817 152.875 87.6699C152.754 87.678 152.635 87.6971 152.517 87.727C150.621 84.431 149.783 80.6315 150.118 76.8436C150.453 73.0557 151.945 69.4623 154.391 66.5505L154.484 66.5245C155.265 66.2475 155.974 65.8008 156.561 65.2165C157.31 64.4668 158.004 63.6636 158.637 62.8134L159.052 62.2944C160.245 60.8571 161.604 59.5662 163.101 58.4483C163.509 58.1137 163.978 57.86 164.481 57.7009C164.912 57.617 165.354 57.603 165.789 57.6594C167.582 57.8746 169.389 57.9423 171.193 57.8618C172.449 57.6643 173.716 57.5361 174.987 57.4778C178.272 57.5712 181.075 59.8913 183.151 62.4345C184.267 63.7373 185.264 65.2373 185.331 66.9397Z" fill="black"/>
<path d="M150.057 69.8619C149.335 71.0453 148.033 71.8498 147.545 73.1474C146.828 75.0315 148.038 77.3775 146.927 79.0592C146.558 79.6249 145.951 80.0453 145.744 80.6941C145.391 81.7893 146.356 82.9571 146.107 84.0834C145.858 85.2097 144.373 86.1595 144.768 87.2599C145.001 87.7398 145.41 88.1115 145.91 88.2979C146.696 88.7491 147.601 88.9501 148.505 88.8741C149.922 88.6405 150.976 87.2495 152.413 87.1457C153.581 87.0626 154.697 87.8723 155.86 87.7218C156.055 87.715 156.24 87.6354 156.379 87.4986C156.467 87.383 156.526 87.2476 156.55 87.1042C157.422 83.6266 158.183 80.1249 158.834 76.5989C158.966 75.6139 159.228 74.6505 159.612 73.7339C159.807 73.2766 160.09 72.8629 160.447 72.517C160.803 72.1711 161.226 71.9001 161.689 71.72C163.075 71.2737 164.632 72.0314 165.519 73.1889C166.407 74.3463 166.744 75.8256 166.983 77.2633C167.222 78.701 167.372 80.1803 167.959 81.5142C168.137 82.0089 168.468 82.4342 168.903 82.7287C169.682 83.1803 170.73 82.8221 171.327 82.1474C171.874 81.4254 172.231 80.5777 172.365 79.682C172.501 78.7896 172.798 77.9295 173.243 77.1439C174.063 75.919 175.563 75.3636 176.995 75.0159C178.428 74.6681 179.938 74.4242 181.148 73.5678C182.098 72.8016 182.873 71.8405 183.421 70.7494C184.189 69.4103 184.906 67.957 184.843 66.4155C184.776 64.7338 183.779 63.2338 182.715 61.9259C180.639 59.3826 177.831 57.0625 174.545 56.9743C173.274 57.0274 172.007 57.1557 170.751 57.3584C168.948 57.4395 167.14 57.37 165.348 57.1508C164.912 57.0986 164.471 57.1144 164.04 57.1975C163.536 57.3514 163.068 57.6056 162.664 57.9449C161.166 59.0608 159.806 60.3501 158.611 61.7857C157.84 62.8074 157.004 63.7783 156.109 64.6923C155.522 65.2775 154.813 65.7259 154.033 66.0055C153.514 66.1508 152.995 66.047 152.502 66.2079C150.97 66.6906 150.768 68.6889 150.057 69.8619Z" fill="#965D7B"/>
<path opacity="0.1" d="M200.041 83.9744C195.889 84.7374 192.448 81.3793 190.543 78.9294C189.958 78.1854 189.425 77.4015 188.949 76.5834L203.202 79.272L203.778 79.381C203.778 79.381 206.4 82.8118 200.041 83.9744Z" fill="black"/>
<g opacity="0.1">
<path opacity="0.1" d="M146.107 82.599C146.165 81.9202 146.062 81.2373 145.806 80.6059C145.806 80.6578 145.759 80.7097 145.744 80.7616C145.52 81.4571 145.821 82.1786 146.013 82.9C146.055 82.8031 146.086 82.7022 146.107 82.599Z" fill="black"/>
<path opacity="0.1" d="M147.342 74.1024C147.289 74.8201 147.303 75.5413 147.384 76.2564C147.437 75.5387 147.423 74.8176 147.342 74.1024Z" fill="black"/>
<path opacity="0.1" d="M183.39 69.2494C182.844 70.3429 182.069 71.306 181.117 72.073C179.918 72.9294 178.407 73.1681 176.964 73.5159C175.521 73.8637 174.032 74.419 173.212 75.6439C172.768 76.4317 172.471 77.2934 172.334 78.1872C172.199 79.0827 171.842 79.9301 171.296 80.6526C170.699 81.3274 169.651 81.6907 168.872 81.2339C168.437 80.9394 168.106 80.5141 167.928 80.0194C167.341 78.6855 167.186 77.2114 166.952 75.7685C166.718 74.3256 166.371 72.8515 165.488 71.6941C164.606 70.5366 163.044 69.7737 161.658 70.2252C161.194 70.4046 160.772 70.6753 160.415 71.0212C160.058 71.3672 159.775 71.7814 159.581 72.2391C159.197 73.1558 158.935 74.1191 158.803 75.1041C158.156 78.6301 157.395 82.1319 156.519 85.6094C156.495 85.7528 156.436 85.8882 156.348 86.0038C156.209 86.1406 156.024 86.2202 155.829 86.227C154.666 86.3775 153.55 85.5679 152.382 85.6509C150.944 85.7547 149.891 87.1457 148.474 87.3741C147.57 87.4551 146.663 87.2539 145.879 86.798C145.518 86.6427 145.194 86.4128 144.929 86.1232C144.807 86.2971 144.727 86.4963 144.694 86.7058C144.66 86.9153 144.675 87.1296 144.737 87.3326C144.965 87.8158 145.376 88.189 145.879 88.3706C146.663 88.8265 147.57 89.0278 148.474 88.9468C149.891 88.7184 150.944 87.3274 152.382 87.2236C153.55 87.1405 154.666 87.9502 155.829 87.7997C156.024 87.7929 156.209 87.7133 156.348 87.5765C156.436 87.4608 156.495 87.3255 156.519 87.182C157.391 83.7218 158.152 80.2201 158.803 76.6768C158.935 75.6917 159.197 74.7284 159.581 73.8118C159.775 73.354 160.058 72.9399 160.415 72.5939C160.772 72.248 161.194 71.9772 161.658 71.7979C163.044 71.3463 164.601 72.1093 165.488 73.2668C166.376 74.4242 166.713 75.9035 166.952 77.3412C167.191 78.7789 167.341 80.2581 167.928 81.5921C168.106 82.0868 168.437 82.5121 168.872 82.8066C169.651 83.2582 170.699 82.9 171.296 82.2253C171.842 81.5028 172.199 80.6553 172.334 79.7599C172.471 78.8661 172.768 78.0044 173.212 77.2166C174.032 75.9917 175.532 75.4415 176.964 75.0886C178.397 74.7356 179.907 74.5021 181.117 73.6457C182.069 72.8786 182.844 71.9156 183.39 70.8221C184.158 69.4882 184.875 68.0349 184.812 66.4934C184.802 66.2952 184.781 66.0977 184.75 65.9017C184.5 67.0896 184.039 68.2234 183.39 69.2494Z" fill="black"/>
</g>
<path opacity="0.1" d="M184.833 69.4051C186.164 71.7717 186.953 74.4043 187.143 77.1128C182.518 74.5176 178.169 71.6681 175.973 70.6768C172.148 68.9484 157.843 69.2079 152.465 69.3688C153.028 68.364 153.685 67.4151 154.427 66.5349C155.656 65.0755 157.1 63.8118 158.709 62.7875C160.841 61.4348 163.226 60.531 165.718 60.1313C168.211 59.7316 170.759 59.8444 173.207 60.4628C175.654 61.0813 177.95 62.1923 179.953 63.7281C181.957 65.2638 183.626 67.192 184.859 69.3948L184.833 69.4051Z" fill="black"/>
<path opacity="0.1" d="M201.339 81.7737C198.842 82.5419 194.768 81.0574 190.543 78.9294C189.958 78.1854 189.425 77.4015 188.949 76.5834L203.202 79.272C204.147 79.9156 204.386 80.8343 201.339 81.7737Z" fill="black"/>
<path d="M169.744 51.4103C169.744 51.4103 156.119 50.6317 152.289 58.0279L151.671 64.5833L150.633 64.4691L150.425 68.9276C150.425 68.9276 171.25 68.0193 175.988 70.1577C180.727 72.2962 195.453 83.0713 201.354 81.2547C207.256 79.4381 200.835 77.7512 200.835 77.7512C200.835 77.7512 192.712 74.31 192.712 71.611C192.712 68.9121 190.698 54.6542 169.744 51.4103Z" fill="#444053"/>
<path opacity="0.1" d="M143.465 294.422C143.465 294.422 152.159 302.856 155.922 302.207C155.922 302.207 145.282 301.299 143.465 294.422Z" fill="black"/>
<path opacity="0.1" d="M141.648 298.33C141.648 298.33 142.427 302.669 144.503 302.243C146.579 301.818 141.648 298.33 141.648 298.33Z" fill="black"/>
<path opacity="0.1" d="M155.273 370.849C155.273 370.849 142.93 380.451 145.012 380.711C147.093 380.97 155.273 370.849 155.273 370.849Z" fill="black"/>
<path d="M171.784 180.276L211.751 173.772V211.61L173.777 209.622L171.784 180.276Z" fill="#8900CE"/>
<path opacity="0.05" d="M171.784 180.276L211.751 173.772V211.61L173.777 209.622L171.784 180.276Z" fill="black"/>
<path d="M211.751 173.772L259.68 177.359L257.028 210.286L211.751 211.61V173.772Z" fill="#8900CE"/>
<path opacity="0.1" d="M211.751 173.772L259.68 177.359L257.028 210.286L211.751 211.61V173.772Z" fill="black"/>
<path d="M226.487 162.224L211.751 173.772L259.68 177.359L267.512 165.54L226.487 162.224Z" fill="#8900CE"/>
<path d="M157.313 167.663L193.294 163.283L211.751 173.772L171.784 180.276L157.313 167.663Z" fill="#8900CE"/>
<path d="M220.512 183.598V235.33L201.79 233.409L193.646 232.579L191.165 232.319L183.027 231.484L171.784 230.331V180.276L211.746 182.996L220.512 183.598Z" fill="#8900CE"/>
<path d="M259.68 177.359V227.809L244.674 230.69L237.376 232.091L220.512 235.33V183.598L259.68 177.359Z" fill="#8900CE"/>
<path opacity="0.05" d="M259.68 177.359V227.809L244.674 230.69L237.376 232.091L220.512 235.33V183.598L259.68 177.359Z" fill="black"/>
<path d="M157.313 191.165L171.784 180.276L220.513 183.598L213.339 195.681L157.313 191.165Z" fill="#8900CE"/>
<path opacity="0.1" d="M157.313 191.165L171.784 180.276L220.513 183.598L213.339 195.681L157.313 191.165Z" fill="white"/>
<path d="M259.68 177.359L220.512 183.598L233.26 195.016L275.215 187.978L259.68 177.359Z" fill="#8900CE"/>
<path opacity="0.1" d="M259.68 177.359L220.512 183.598L233.26 195.016L275.215 187.978L259.68 177.359Z" fill="white"/>
<path opacity="0.1" d="M244.674 230.69L237.376 232.091V221.311L244.212 219.587L244.674 230.69Z" fill="white"/>
<path opacity="0.1" d="M201.79 226.278V233.409L193.646 232.579V226.278H201.79Z" fill="white"/>
<path opacity="0.1" d="M191.166 228.525V232.319L183.027 231.484V228.525H191.166Z" fill="white"/>
<path opacity="0.1" d="M215.613 222.494C210.033 229.631 191.607 224.7 191.607 224.7L177.914 210.416L176.056 208.48L179.689 201.733C179.689 201.733 180.727 202.075 182.461 202.677C191.638 205.885 220.31 216.489 215.613 222.494Z" fill="black"/>
<path d="M215.094 221.456C209.514 228.593 191.088 223.662 191.088 223.662L177.395 209.378L175.537 207.442L179.17 200.695C179.17 200.695 180.208 201.037 181.942 201.639C191.119 204.847 219.791 215.451 215.094 221.456Z" fill="#EFB7B9"/>
<path opacity="0.1" d="M181.921 201.639C181.163 203.819 179.238 207.048 177.374 209.378L175.516 207.442L179.149 200.695C179.149 200.695 180.193 201.037 181.921 201.639Z" fill="black"/>
<path d="M136.588 120.919C136.588 120.919 122.963 126.11 122.833 140.642C122.802 150.008 123.322 159.366 124.39 168.67C124.39 168.67 120.497 190.34 131.527 196.568C142.557 202.797 152.808 207.987 152.808 207.987C152.808 207.987 170.43 210.842 172.594 211.75C174.758 212.658 182.279 200.98 181.112 199.034C179.944 197.087 163.9 192.286 161.995 189.042C160.09 185.798 155.398 183.613 155.398 183.613C155.398 183.613 150.612 180.349 150.42 177.624C150.228 174.899 151.64 172.952 152.04 171.785C152.439 170.617 153.887 159.198 153.887 159.198C153.887 159.198 161.632 118.687 136.588 120.919Z" fill="#DCE6F2"/>
<path opacity="0.1" d="M142.816 169.034C142.816 169.034 124.39 171.11 125.817 177.598C125.817 177.598 132.819 171.053 142.816 169.034Z" fill="black"/>
<path opacity="0.1" d="M142.816 171.629C142.816 171.629 132.357 179.284 134.278 179.804C136.198 180.323 142.816 171.629 142.816 171.629Z" fill="black"/>
<path opacity="0.1" d="M147.488 174.743C147.488 174.743 144.503 180.11 146.19 179.829C147.877 179.549 147.488 174.743 147.488 174.743Z" fill="black"/>
<path d="M339.338 58.3342C339.338 58.3342 319.614 57.1456 321.919 70.983C321.919 70.983 321.457 73.4276 323.673 74.5384C323.673 74.5384 323.71 73.5003 325.698 73.8584C326.406 73.9776 327.125 74.0124 327.841 73.9622C328.812 73.8975 329.734 73.5165 330.468 72.8775C330.468 72.8775 336.016 70.5885 338.176 61.5158C338.176 61.5158 339.774 59.5331 339.733 59.0245L336.4 60.4518C336.4 60.4518 337.537 62.8549 336.639 64.8532C336.639 64.8532 336.535 60.54 335.892 60.6387C335.762 60.6387 334.163 61.4743 334.163 61.4743C334.163 61.4743 336.12 65.6577 334.641 68.7044C334.641 68.7044 335.201 63.5453 333.551 61.7753L331.205 63.1456C331.205 63.1456 333.494 67.4691 331.942 70.9986C331.942 70.9986 332.341 65.5851 330.712 63.4778L328.584 65.1335C328.584 65.1335 330.738 69.3999 329.424 72.3273C329.424 72.3273 329.253 66.0262 328.122 65.5487C328.122 65.5487 326.263 67.1889 325.983 67.8636C325.983 67.8636 327.452 70.9778 326.539 72.592C326.539 72.592 325.978 68.393 325.5 68.3723C325.5 68.3723 323.647 71.1543 323.455 73.0436C323.545 71.2822 324.094 69.5751 325.049 68.092C323.981 68.294 322.996 68.8047 322.215 69.5608C322.215 69.5608 322.5 67.5937 325.506 67.4224C325.506 67.4224 327.063 65.31 327.447 65.1802C327.447 65.1802 324.457 64.9311 322.646 65.7356C322.646 65.7356 324.239 63.8826 327.997 64.6975L330.073 62.9847C330.073 62.9847 326.139 62.4657 324.467 63.0418C324.467 63.0418 326.388 61.4016 330.639 62.5954L332.923 61.2304C332.923 61.2304 329.57 60.5037 327.571 60.7684C327.571 60.7684 329.679 59.6317 333.592 60.8618L335.227 60.13C335.227 60.13 332.767 59.6473 332.051 59.5695C331.335 59.4916 331.293 59.2944 331.293 59.2944C332.849 59.0353 334.447 59.2151 335.907 59.8134C335.907 59.8134 339.411 58.5522 339.338 58.3342Z" fill="#8900CE"/>
<path opacity="0.1" d="M399.267 127.542C399.267 127.542 379.544 126.353 381.848 140.191C381.848 140.191 381.386 142.636 383.603 143.746C383.603 143.746 383.639 142.708 385.632 143.066C386.34 143.185 387.06 143.22 387.776 143.17C388.735 143.101 389.645 142.722 390.371 142.091C390.371 142.091 395.925 139.796 398.084 130.724C398.084 130.724 399.677 128.746 399.615 128.238L396.283 129.66C396.283 129.66 397.42 132.063 396.527 134.061C396.527 134.061 396.418 129.748 395.779 129.847C395.65 129.847 394.046 130.682 394.046 130.682C394.046 130.682 396.008 134.871 394.529 137.912C394.529 137.912 395.089 132.753 393.433 130.983L391.113 132.338C391.113 132.338 393.402 136.661 391.85 140.191C391.85 140.191 392.25 134.777 390.62 132.67L388.497 134.331C388.497 134.331 390.646 138.592 389.338 141.52C389.338 141.52 389.167 135.219 388.035 134.741C388.035 134.741 386.177 136.381 385.892 137.056C385.892 137.056 387.366 140.17 386.452 141.784C386.452 141.784 385.892 137.585 385.414 137.565C385.414 137.565 383.561 140.347 383.369 142.236C383.462 140.474 384.013 138.768 384.968 137.284C383.898 137.487 382.912 137.997 382.128 138.753C382.128 138.753 382.419 136.786 385.424 136.615C385.424 136.615 386.956 134.502 387.366 134.373C387.366 134.373 384.376 134.123 382.564 134.928C382.564 134.928 384.158 133.075 387.911 133.916L389.987 132.203C389.987 132.203 386.047 131.684 384.381 132.26C384.381 132.26 386.302 130.62 390.553 131.814L392.836 130.449C392.836 130.449 389.478 129.727 387.48 129.987C387.48 129.987 389.592 128.85 393.506 130.08L395.141 129.348C395.141 129.348 392.681 128.866 391.959 128.788C391.238 128.71 391.201 128.513 391.201 128.513C392.76 128.253 394.359 128.433 395.821 129.032C395.821 129.032 399.33 127.76 399.267 127.542Z" fill="#8900CE"/>
<path opacity="0.1" d="M279.445 115.257C279.445 115.257 283.987 96.0056 269.952 95.9381C269.952 95.9381 267.621 95.0662 266.152 97.0592C266.152 97.0592 267.154 97.272 266.474 99.1717C266.239 99.8435 266.082 100.54 266.007 101.248C265.906 102.213 266.123 103.184 266.625 104.014C266.625 104.014 267.938 109.879 276.487 113.554C276.487 113.554 278.168 115.464 278.677 115.485L277.846 111.961C277.846 111.961 275.282 112.672 273.466 111.442C273.466 111.442 277.737 112.07 277.743 111.442C277.743 111.312 277.224 109.594 277.224 109.594C277.224 109.594 272.765 110.808 270.014 108.831C270.014 108.831 275.002 110.263 277.032 108.94L276.097 106.386C276.097 106.386 271.426 107.907 268.228 105.774C268.228 105.774 273.497 107.092 275.853 105.846L274.582 103.469C274.582 103.469 270.014 104.86 267.351 103.07C267.351 103.07 273.58 103.973 274.255 102.945C274.255 102.945 272.957 100.833 272.339 100.438C272.339 100.438 269.038 101.362 267.585 100.184C267.585 100.184 271.815 100.345 271.914 99.8984C271.914 99.8984 269.49 97.599 267.642 97.08C269.364 97.4721 270.954 98.3056 272.256 99.4987C272.237 98.4109 271.902 97.3522 271.291 96.452C271.291 96.452 273.18 97.0748 272.848 100.085C272.848 100.085 274.665 101.954 274.722 102.379C274.722 102.379 275.474 99.4779 274.992 97.5523C274.992 97.5523 276.549 99.4416 275.08 102.997L276.409 105.359C276.409 105.359 277.613 101.57 277.307 99.8257C277.307 99.8257 278.599 101.995 276.694 105.981L277.654 108.468C277.654 108.468 278.936 105.281 279.019 103.277C279.019 103.277 279.783 105.551 277.898 109.199L278.345 110.933C278.345 110.933 279.238 108.592 279.435 107.897C279.632 107.201 279.834 107.196 279.834 107.196C279.826 108.775 279.379 110.321 278.542 111.66C278.542 111.66 279.222 115.282 279.445 115.257Z" fill="#8900CE"/>
<path opacity="0.1" d="M236.25 121.817C236.25 121.817 220.409 109.968 214.746 122.803C214.746 122.803 213.017 124.594 214.258 126.738C214.258 126.738 214.85 125.902 216.334 127.288C216.86 127.777 217.442 128.202 218.068 128.554C218.916 129.026 219.894 129.208 220.855 129.073C220.855 129.073 226.751 130.21 233.541 123.821C233.541 123.821 235.965 123.042 236.193 122.585L232.617 121.957C232.617 121.957 232.243 124.589 230.4 125.767C230.4 125.767 232.679 122.103 232.087 121.838C231.968 121.781 230.182 121.578 230.182 121.578C230.182 121.578 229.518 126.156 226.611 127.885C226.611 127.885 229.918 123.883 229.508 121.495L226.793 121.35C226.793 121.35 226.331 126.224 223.092 128.321C223.092 128.321 226.399 124.018 226.206 121.36L223.518 121.578C223.518 121.578 222.973 126.317 220.269 128.04C220.269 128.04 223.585 122.684 222.905 121.667C222.905 121.667 220.45 122.014 219.843 122.419C219.843 122.419 219.371 125.814 217.71 126.675C217.71 126.675 219.552 122.86 219.179 122.596C219.179 122.596 216.101 123.898 214.891 125.383C215.937 123.962 217.337 122.838 218.95 122.123C217.946 121.706 216.842 121.591 215.774 121.791C215.774 121.791 217.092 120.307 219.698 121.817C219.698 121.817 222.137 120.898 222.552 121.013C222.552 121.013 220.191 119.16 218.234 118.838C218.234 118.838 220.59 118.163 223.263 120.914L225.957 120.639C225.957 120.639 222.962 118.044 221.244 117.608C221.244 117.608 223.751 117.291 226.642 120.623L229.3 120.743C229.3 120.743 226.897 118.293 225.085 117.411C225.085 117.411 227.468 117.618 230.063 120.8L231.833 121.085C231.833 121.085 230.042 119.331 229.482 118.874C228.921 118.417 228.999 118.225 228.999 118.225C230.443 118.865 231.681 119.893 232.575 121.194C232.575 121.194 236.183 122.03 236.25 121.817Z" fill="#8900CE"/>
<path opacity="0.1" d="M288.991 11.725C288.991 11.725 273.149 -0.129748 267.486 12.7111C267.486 12.7111 265.758 14.5018 266.998 16.6454C266.998 16.6454 267.59 15.8098 269.075 17.1956C269.603 17.6822 270.187 18.1055 270.813 18.4568C271.661 18.9292 272.64 19.1115 273.601 18.9759C273.601 18.9759 279.497 20.1126 286.286 13.7181C286.286 13.7181 288.71 12.9447 288.933 12.4828L285.357 11.8651C285.357 11.8651 284.989 14.4966 283.141 15.6748C283.141 15.6748 285.425 12.0104 284.833 11.7457C284.714 11.6886 282.928 11.4862 282.928 11.4862C282.928 11.4862 282.243 16.0745 279.336 17.7925C279.336 17.7925 282.637 13.7907 282.232 11.4032L279.518 11.2578C279.518 11.2578 279.051 16.1316 275.817 18.2233C275.817 18.2233 279.123 13.9205 278.931 11.263L276.248 11.481C276.248 11.481 275.698 16.225 272.993 17.9482C272.993 17.9482 276.315 12.5918 275.635 11.5745C275.635 11.5745 273.18 11.9222 272.573 12.3271C272.573 12.3271 272.101 15.7215 270.44 16.5831C270.44 16.5831 272.282 12.7682 271.909 12.4983C271.909 12.4983 268.831 13.8063 267.621 15.2907C268.666 13.8679 270.065 12.744 271.68 12.0312C270.675 11.6108 269.569 11.4953 268.499 11.699C268.499 11.699 269.822 10.2146 272.428 11.725C272.428 11.725 274.867 10.8011 275.282 10.9205C275.282 10.9205 272.921 9.06753 270.964 8.74054C270.964 8.74054 273.315 8.07098 275.988 10.8167L278.682 10.5416C278.682 10.5416 275.692 7.94641 273.969 7.50523C273.969 7.50523 276.476 7.19381 279.373 10.526L282.03 10.6402C282.03 10.6402 279.627 8.19036 277.81 7.31319C277.81 7.31319 280.198 7.52081 282.793 10.7025L284.558 10.9879C284.558 10.9879 282.762 9.25438 282.201 8.80801C281.641 8.36164 281.719 8.16441 281.719 8.16441C283.163 8.80312 284.401 9.83107 285.295 11.1333C285.295 11.1333 288.902 11.9222 288.991 11.725Z" fill="#8900CE"/>
<path opacity="0.1" d="M349.522 26.7406C349.522 26.7406 343.19 7.9983 331.246 15.3634C331.246 15.3634 328.807 15.8824 328.615 18.3271C328.615 18.3271 329.575 17.9741 330.001 19.9464C330.159 20.648 330.397 21.329 330.712 21.9759C331.141 22.8464 331.84 23.5547 332.705 23.9949C332.705 23.9949 336.919 28.2769 346.138 26.86C346.138 26.86 348.572 27.597 349.019 27.3427L346.423 24.7942C346.423 24.7942 344.627 26.751 342.437 26.6731C342.437 26.6731 346.397 24.9499 346.07 24.3946C346.003 24.2856 344.648 23.1074 344.648 23.1074C344.648 23.1074 341.503 26.4967 338.129 26.2735C338.129 26.2735 343.117 24.8513 344.134 22.6402L341.985 20.9845C341.985 20.9845 338.84 24.7319 334.983 24.6177C334.983 24.6177 340.174 22.9517 341.487 20.6471L339.151 19.3028C339.151 19.3028 336.037 22.8997 332.809 22.7856C332.809 22.7856 338.58 20.2579 338.596 19.0329C338.596 19.0329 336.38 17.9274 335.648 17.917C335.648 17.917 333.333 20.4447 331.495 20.2163C331.495 20.2163 335.17 18.1143 335.015 17.6835C335.015 17.6835 331.745 17.0139 329.902 17.5537C331.569 16.9735 333.358 16.8393 335.092 17.1644C334.5 16.2504 333.654 15.5289 332.658 15.0883C332.658 15.0883 334.589 14.616 335.881 17.3357C335.881 17.3357 338.414 17.9637 338.684 18.2907C338.684 18.2907 337.792 15.4309 336.364 14.0502C336.364 14.0502 338.684 14.834 339.318 18.6281L341.695 19.9257C341.695 19.9257 340.714 16.0797 339.53 14.7354C339.53 14.7354 341.778 15.898 342.266 20.2838L344.394 21.8876C344.394 21.8876 343.802 18.5035 342.806 16.7492C342.806 16.7492 344.653 18.2752 344.986 22.3703L346.278 23.6056C346.278 23.6056 345.8 21.1454 345.603 20.4499C345.406 19.7544 345.567 19.7077 345.567 19.7077C346.392 21.0541 346.829 22.6026 346.828 24.1818C346.828 24.1818 349.34 26.8755 349.522 26.7406Z" fill="#8900CE"/>
<path opacity="0.1" d="M308.195 27.6645C308.195 27.6645 288.523 25.4741 290.148 39.431C290.148 39.431 289.562 41.8496 291.705 43.0642C291.705 43.0642 291.793 42.0261 293.781 42.4932C294.484 42.6444 295.201 42.7158 295.92 42.706C296.891 42.6885 297.829 42.3551 298.593 41.7562C298.593 41.7562 304.256 39.7476 306.898 30.7942C306.898 30.7942 308.59 28.8998 308.554 28.3859L305.154 29.642C305.154 29.642 306.192 32.097 305.154 34.0486C305.154 34.0486 305.263 29.7354 304.635 29.8029C304.505 29.8029 302.865 30.5503 302.865 30.5503C302.865 30.5503 304.609 34.8323 302.979 37.8168C302.979 37.8168 303.799 32.6887 302.237 30.8409L299.823 32.0866C299.823 32.0866 301.899 36.5244 300.161 39.9707C300.161 39.9707 300.835 34.5832 299.315 32.398L297.109 33.9551C297.109 33.9551 299.039 38.3202 297.581 41.1801C297.581 41.1801 297.731 34.879 296.626 34.3444C296.626 34.3444 294.685 35.9015 294.368 36.5451C294.368 36.5451 295.681 39.7112 294.69 41.2943C294.69 41.2943 294.342 37.0745 293.885 37.033C293.885 37.033 291.892 39.7164 291.601 41.6109C291.782 39.8545 292.419 38.1759 293.449 36.7424C292.372 36.8912 291.362 37.3512 290.543 38.0659C290.543 38.0659 290.927 36.1195 293.937 36.0988C293.937 36.0988 295.572 34.0693 296.013 33.9603C296.013 33.9603 293.039 33.5607 291.186 34.2718C291.186 34.2718 292.873 32.4967 296.579 33.5295L298.764 31.9257C298.764 31.9257 294.814 31.1264 293.143 31.6455C293.143 31.6455 295.147 30.0884 299.33 31.5157L301.681 30.2648C301.681 30.2648 298.365 29.3721 296.356 29.533C296.356 29.533 298.52 28.4949 302.367 29.9326L304.038 29.2838C304.038 29.2838 301.604 28.6766 300.887 28.5624C300.171 28.4482 300.145 28.251 300.145 28.251C301.714 28.0709 303.303 28.3297 304.733 28.9984C304.733 28.9984 308.232 27.8825 308.195 27.6645Z" fill="#8900CE"/>
<path opacity="0.1" d="M480.312 180.349C480.312 180.349 460.65 178.158 462.275 192.099C462.275 192.099 461.688 194.518 463.832 195.733C463.832 195.733 463.92 194.695 465.908 195.157C466.61 195.313 467.328 195.384 468.047 195.369C469.018 195.354 469.957 195.021 470.72 194.419C470.72 194.419 476.383 192.411 478.999 183.463C478.999 183.463 480.691 181.563 480.654 181.054L477.255 182.305C477.255 182.305 478.293 184.765 477.255 186.717C477.255 186.717 477.364 182.399 476.736 182.471C476.606 182.471 474.966 183.214 474.966 183.214C474.966 183.214 476.71 187.496 475.08 190.48C475.08 190.48 475.9 185.357 474.338 183.504L471.924 184.755C471.924 184.755 474 189.193 472.267 192.639C472.267 192.639 472.936 187.252 471.415 185.061L469.209 186.618C469.209 186.618 471.14 190.983 469.682 193.838C469.682 193.838 469.832 187.537 468.727 187.008C468.727 187.008 466.791 188.565 466.469 189.208C466.469 189.208 467.787 192.375 466.791 193.958C466.791 193.958 466.443 189.738 465.986 189.696C465.986 189.696 463.993 192.38 463.702 194.274C463.882 192.518 464.519 190.839 465.55 189.406C464.472 189.552 463.461 190.012 462.643 190.729C462.643 190.729 463.027 188.778 466.038 188.757C466.038 188.757 467.678 186.727 468.114 186.624C468.114 186.624 465.14 186.219 463.287 186.93C463.287 186.93 464.974 185.16 468.685 186.193L470.865 184.589C470.865 184.589 466.962 183.852 465.265 184.361C465.265 184.361 467.268 182.804 471.452 184.226L473.803 182.98C473.803 182.98 470.486 182.087 468.478 182.248C468.478 182.248 470.642 181.21 474.488 182.648L476.159 181.994C476.159 181.994 473.725 181.387 473.009 181.278C472.293 181.169 472.267 180.966 472.267 180.966C473.835 180.783 475.424 181.04 476.855 181.708C476.855 181.708 480.364 180.572 480.312 180.349Z" fill="#8900CE"/>
<path opacity="0.1" d="M510.37 198.712C510.37 198.712 490.708 196.527 492.333 210.463C492.333 210.463 491.752 212.882 493.89 214.096C493.89 214.096 493.978 213.058 495.966 213.525C496.667 213.678 497.383 213.747 498.1 213.733C499.066 213.713 500 213.382 500.762 212.788C500.762 212.788 506.42 210.779 509.036 201.826C509.036 201.826 510.733 199.932 510.692 199.418L507.292 200.669C507.292 200.669 508.33 203.129 507.292 205.08C507.292 205.08 507.401 200.767 506.773 200.835C506.643 200.835 505.003 201.577 505.003 201.577C505.003 201.577 506.747 205.859 505.117 208.843C505.117 208.843 505.937 203.721 504.375 201.873L501.961 203.118C501.961 203.118 504.037 207.556 502.304 211.003C502.304 211.003 502.973 205.615 501.453 203.43L499.247 204.987C499.247 204.987 501.178 209.352 499.724 212.212C499.724 212.212 499.87 205.906 498.764 205.376C498.764 205.376 496.828 206.933 496.506 207.577C496.506 207.577 497.824 210.743 496.828 212.326C496.828 212.326 496.48 208.106 496.023 208.065C496.023 208.065 494.03 210.748 493.745 212.643C493.924 210.887 494.56 209.209 495.587 207.774C494.51 207.923 493.5 208.383 492.681 209.098C492.681 209.098 493.07 207.146 496.08 207.131C496.08 207.131 497.715 205.101 498.157 204.992C498.157 204.992 495.183 204.593 493.33 205.304C493.33 205.304 495.016 203.529 498.728 204.561L500.908 202.958C500.908 202.958 497.004 202.221 495.307 202.729C495.307 202.729 497.311 201.172 501.494 202.599L503.845 201.349C503.845 201.349 500.529 200.456 498.52 200.617C498.52 200.617 500.684 199.579 504.531 201.016L506.202 200.368C506.202 200.368 503.768 199.76 503.056 199.646C502.345 199.532 502.309 199.335 502.309 199.335C503.878 199.155 505.467 199.413 506.897 200.082C506.897 200.082 510.422 198.935 510.37 198.712Z" fill="#8900CE"/>
<path opacity="0.1" d="M443.636 44.0348C443.636 44.0348 427.794 32.1853 422.132 45.021C422.132 45.021 420.403 46.8116 421.644 48.9552C421.644 48.9552 422.235 48.1196 423.72 49.5054C424.246 49.9946 424.828 50.4197 425.453 50.7718C426.301 51.2435 427.28 51.4257 428.241 51.2909C428.241 51.2909 434.137 52.4276 440.931 46.0383C440.931 46.0383 443.35 45.2597 443.579 44.803L440.013 44.1594C440.013 44.1594 439.639 46.7909 437.796 47.9691C437.796 47.9691 440.075 44.3047 439.483 44.04C439.364 43.9829 437.584 43.7805 437.584 43.7805C437.584 43.7805 436.914 48.3583 434.007 50.0867C434.007 50.0867 437.314 46.085 436.904 43.6974L434.189 43.5521C434.189 43.5521 433.727 48.4258 430.488 50.5227C430.488 50.5227 433.8 46.2199 433.603 43.5625L430.914 43.7805C430.914 43.7805 430.395 48.5192 427.665 50.2424C427.665 50.2424 430.987 44.886 430.301 43.8687C430.301 43.8687 427.846 44.2164 427.239 44.6213C427.239 44.6213 426.772 48.0158 425.111 48.8774C425.111 48.8774 426.948 45.0625 426.575 44.7978C426.575 44.7978 423.497 46.1005 422.287 47.585C423.333 46.1637 424.733 45.0401 426.346 44.3254C425.342 43.9082 424.238 43.7927 423.17 43.9933C423.17 43.9933 424.493 42.5088 427.099 44.0192C427.099 44.0192 429.533 43.1005 429.948 43.2147C429.948 43.2147 427.587 41.3618 425.63 41.04C425.63 41.04 427.986 40.3652 430.66 43.1161L433.353 42.841C433.353 42.841 430.364 40.2458 428.64 39.8098C428.64 39.8098 431.147 39.4932 434.039 42.8254L436.701 42.9448C436.701 42.9448 434.293 40.495 432.481 39.6126C432.481 39.6126 434.869 39.8202 437.459 43.0019L439.229 43.2874C439.229 43.2874 437.438 41.533 436.878 41.0763C436.317 40.6195 436.4 40.469 436.4 40.469C437.842 41.1095 439.078 42.1372 439.971 43.4379C439.971 43.4379 443.568 44.2476 443.636 44.0348Z" fill="#8900CE"/>
<path opacity="0.1" d="M455.875 129.582C455.875 129.582 450.415 110.57 438.134 117.395C438.134 117.395 435.674 117.774 435.367 120.234C435.367 120.234 436.343 119.928 436.681 121.916C436.806 122.63 437.015 123.327 437.303 123.992C437.688 124.886 438.356 125.63 439.203 126.11C439.203 126.11 443.221 130.573 452.491 129.577C452.491 129.577 454.889 130.418 455.346 130.189L452.891 127.521C452.891 127.521 451.006 129.4 448.826 129.224C448.826 129.224 452.854 127.667 452.543 127.111C452.48 126.997 451.183 125.757 451.183 125.757C451.183 125.757 447.892 129.006 444.529 128.627C444.529 128.627 449.579 127.433 450.69 125.284L448.614 123.53C448.614 123.53 445.302 127.132 441.456 126.852C441.456 126.852 446.688 125.414 448.131 123.177L445.857 121.729C445.857 121.729 442.561 125.18 439.364 124.921C439.364 124.921 445.245 122.653 445.318 121.433C445.318 121.433 443.148 120.229 442.416 120.187C442.416 120.187 439.992 122.606 438.15 122.295C438.15 122.295 441.918 120.359 441.783 119.923C441.783 119.923 438.544 119.108 436.681 119.559C438.368 119.059 440.157 119.007 441.871 119.409C441.322 118.47 440.51 117.712 439.535 117.229C439.535 117.229 441.487 116.84 442.65 119.616C442.65 119.616 445.146 120.353 445.406 120.696C445.406 120.696 444.643 117.795 443.278 116.357C443.278 116.357 445.562 117.239 446.023 121.059L448.338 122.466C448.338 122.466 447.529 118.573 446.408 117.203C446.408 117.203 448.598 118.464 448.894 122.866L450.97 124.563C450.97 124.563 450.529 121.158 449.615 119.372C449.615 119.372 451.396 120.981 451.541 125.082L452.776 126.379C452.776 126.379 452.413 123.898 452.257 123.193C452.102 122.487 452.257 122.388 452.257 122.388C453.025 123.769 453.394 125.336 453.321 126.914C453.321 126.914 455.688 129.706 455.875 129.582Z" fill="#8900CE"/>
<path opacity="0.1" d="M334.2 172.423C334.2 172.423 323.595 155.72 313.749 165.717C313.749 165.717 311.496 166.755 311.891 169.22C311.891 169.22 312.747 168.649 313.63 170.466C313.947 171.11 314.341 171.713 314.803 172.262C315.422 173.011 316.27 173.537 317.216 173.757C317.216 173.757 322.329 176.913 330.945 173.342C330.945 173.342 333.483 173.477 333.857 173.129L330.743 171.26C330.743 171.26 329.461 173.596 327.317 174.037C327.317 174.037 330.753 171.442 330.291 170.964C330.203 170.871 328.604 170.051 328.604 170.051C328.604 170.051 326.357 174.089 323.024 174.675C323.024 174.675 327.535 172.106 328.002 169.729L325.516 168.634C325.516 168.634 323.351 173.02 319.583 173.824C319.583 173.824 324.203 170.975 324.955 168.421L322.36 167.674C322.36 167.674 320.17 171.914 317.029 172.563C317.029 172.563 322.033 168.733 321.758 167.539C321.758 167.539 319.339 166.994 318.644 167.16C318.644 167.16 316.998 170.165 315.14 170.383C315.14 170.383 318.213 167.466 317.959 167.082C317.959 167.082 314.621 167.212 312.96 168.172C314.442 167.212 316.149 166.657 317.912 166.563C317.123 165.816 316.132 165.316 315.062 165.125C315.062 165.125 316.822 164.207 318.696 166.542C318.696 166.542 321.291 166.542 321.649 166.802C321.649 166.802 320.092 164.207 318.384 163.236C318.384 163.236 320.824 163.444 322.339 166.978L324.96 167.674C324.96 167.674 323.087 164.17 321.628 163.169C321.628 163.169 324.083 163.76 325.604 167.907L328.054 168.945C328.054 168.945 326.673 165.805 325.287 164.336C325.287 164.336 327.447 165.374 328.739 169.272L330.296 170.17C330.296 170.17 329.258 167.892 328.89 167.264C328.521 166.636 328.667 166.49 328.667 166.49C329.79 167.6 330.582 169 330.955 170.534C330.955 170.534 334.059 172.599 334.2 172.423Z" fill="#8900CE"/>
<path d="M403.892 87.0834C403.892 87.0834 393.807 70.0643 383.649 79.7495C383.649 79.7495 381.366 80.7357 381.687 83.1959C381.687 83.1959 382.554 82.6457 383.385 84.4883C383.682 85.1432 384.056 85.7601 384.501 86.3256C385.097 87.091 385.929 87.6384 386.867 87.8827C386.867 87.8827 391.876 91.1942 400.601 87.8827C400.601 87.8827 403.134 88.0955 403.518 87.7582L400.472 85.7962C400.472 85.7962 399.122 88.0852 396.963 88.4641C396.963 88.4641 400.477 85.9571 400.036 85.4848C399.942 85.3862 398.375 84.5142 398.375 84.5142C398.375 84.5142 396.003 88.4848 392.665 88.9675C392.665 88.9675 397.254 86.5384 397.788 84.182L395.338 83.0298C395.338 83.0298 393.039 87.3533 389.245 88.0436C389.245 88.0436 393.952 85.3395 394.783 82.8118L392.219 81.9813C392.219 81.9813 389.893 86.1336 386.738 86.7045C386.738 86.7045 391.855 83.0298 391.617 81.8308C391.617 81.8308 389.219 81.208 388.502 81.3533C388.502 81.3533 386.764 84.3066 384.9 84.4675C384.9 84.4675 388.061 81.6543 387.822 81.2599C387.822 81.2599 384.48 81.2858 382.793 82.1941C384.304 81.2827 386.027 80.7817 387.791 80.7408C387.024 79.9693 386.048 79.4389 384.983 79.2149C384.983 79.2149 386.774 78.3481 388.617 80.7408C388.617 80.7408 391.212 80.8291 391.56 81.0938C391.56 81.0938 390.091 78.4986 388.409 77.4294C388.409 77.4294 390.838 77.7097 392.245 81.291L394.84 82.0696C394.84 82.0696 393.08 78.509 391.648 77.4606C391.648 77.4606 394.087 78.1301 395.478 82.3187L397.892 83.445C397.892 83.445 396.61 80.2633 395.297 78.7737C395.297 78.7737 397.42 79.8792 398.598 83.8135L400.119 84.7582C400.119 84.7582 399.143 82.4485 398.8 81.81C398.458 81.1716 398.603 81.0315 398.603 81.0315C399.691 82.175 400.44 83.5981 400.768 85.1422C400.768 85.1422 403.742 87.2547 403.892 87.0834Z" fill="#8900CE"/>
<path d="M340.086 122.871C340.086 122.871 340.605 103.096 326.866 105.883C326.866 105.883 324.405 105.504 323.367 107.757C323.367 107.757 324.405 107.757 324.115 109.755C324.02 110.467 324.009 111.189 324.083 111.904C324.177 112.873 324.588 113.785 325.251 114.499C325.251 114.499 327.727 119.969 336.868 121.828C336.868 121.828 338.897 123.359 339.406 123.276L337.849 119.995C337.849 119.995 335.487 121.21 333.457 120.385C333.457 120.385 337.766 120.13 337.646 119.497C337.646 119.367 336.753 117.789 336.753 117.789C336.753 117.789 332.632 119.892 329.544 118.511C329.544 118.511 334.734 118.9 336.432 117.193L334.983 114.893C334.983 114.893 330.738 117.322 327.156 115.89C327.156 115.89 332.58 116.108 334.636 114.411L332.907 112.334C332.907 112.334 328.719 114.629 325.75 113.414C325.75 113.414 332.04 113.035 332.497 111.888C332.497 111.888 330.795 110.087 330.11 109.812C330.11 109.812 327.068 111.369 325.407 110.528C325.407 110.528 329.559 109.833 329.585 109.371C329.585 109.371 326.746 107.611 324.831 107.481C326.597 107.513 328.324 108.007 329.84 108.914C329.603 107.853 329.062 106.884 328.283 106.127C328.283 106.127 330.26 106.35 330.53 109.345C330.53 109.345 332.694 110.808 332.835 111.213C332.835 111.213 332.985 108.218 332.118 106.433C332.118 106.433 334.028 107.964 333.312 111.743L335.092 113.788C335.092 113.788 335.497 109.833 334.849 108.187C334.849 108.187 336.551 110.051 335.503 114.338L336.94 116.575C336.94 116.575 337.553 113.196 337.226 111.208C337.226 111.208 338.43 113.284 337.33 117.234L338.119 118.843C338.119 118.843 338.518 116.367 338.57 115.646C338.622 114.924 338.819 114.878 338.819 114.878C339.132 116.426 339.008 118.031 338.461 119.513C338.461 119.513 339.857 122.938 340.086 122.871Z" fill="#8900CE"/>
<path opacity="0.1" d="M362.799 374.145C370.519 374.145 376.777 373.088 376.777 371.784C376.777 370.479 370.519 369.422 362.799 369.422C355.079 369.422 348.821 370.479 348.821 371.784C348.821 373.088 355.079 374.145 362.799 374.145Z" fill="#8900CE"/>
<path opacity="0.1" d="M311.844 410C319.564 410 325.822 408.943 325.822 407.638C325.822 406.334 319.564 405.277 311.844 405.277C304.124 405.277 297.866 406.334 297.866 407.638C297.866 408.943 304.124 410 311.844 410Z" fill="#8900CE"/>
<path opacity="0.1" d="M48.3442 391.631C56.064 391.631 62.3222 390.574 62.3222 389.27C62.3222 387.966 56.064 386.908 48.3442 386.908C40.6244 386.908 34.3662 387.966 34.3662 389.27C34.3662 390.574 40.6244 391.631 48.3442 391.631Z" fill="#8900CE"/>
<path opacity="0.1" d="M417.865 407.638C425.585 407.638 431.843 406.581 431.843 405.277C431.843 403.973 425.585 402.915 417.865 402.915C410.145 402.915 403.887 403.973 403.887 405.277C403.887 406.581 410.145 407.638 417.865 407.638Z" fill="#8900CE"/>
<path d="M432.419 378.842C443.946 378.842 453.29 377.262 453.29 375.313C453.29 373.364 443.946 371.784 432.419 371.784C420.893 371.784 411.548 373.364 411.548 375.313C411.548 377.262 420.893 378.842 432.419 378.842Z" fill="#8900CE"/>
<path d="M441.072 369.536C442.024 368.762 442.718 367.715 443.06 366.536C443.319 365.342 442.811 363.915 441.674 363.479C440.397 362.991 439.032 363.873 437.994 364.766C436.956 365.659 435.777 366.681 434.423 366.495C435.118 365.863 435.638 365.062 435.933 364.17C436.228 363.278 436.287 362.325 436.104 361.403C436.046 361.021 435.884 360.662 435.637 360.365C434.926 359.607 433.644 359.934 432.793 360.531C430.094 362.431 429.341 366.095 429.326 369.396C429.056 368.207 429.284 366.967 429.279 365.763C429.274 364.559 428.936 363.168 427.903 362.534C427.269 362.181 426.553 362.002 425.827 362.015C424.613 361.974 423.258 362.093 422.433 362.981C421.395 364.081 421.67 365.934 422.562 367.133C423.455 368.332 424.82 369.105 426.076 369.946C427.082 370.546 427.94 371.364 428.589 372.339C428.662 372.475 428.723 372.617 428.77 372.764H436.38C438.083 371.907 439.662 370.82 441.072 369.536Z" fill="#8900CE"/>
<path d="M38.9597 378.292C38.9597 378.292 46.9271 378.048 49.3407 376.335C51.7543 374.623 61.6058 372.583 62.2027 375.329C62.7996 378.074 74.1823 388.974 65.182 389.047C56.1817 389.119 44.2696 387.645 41.8716 386.182C39.4736 384.718 38.9597 378.292 38.9597 378.292Z" fill="#A8A8A8"/>
<path opacity="0.2" d="M65.3326 388.092C56.3323 388.164 44.4201 386.69 42.0221 385.227C40.1951 384.116 39.4684 380.124 39.2244 378.282H38.9597C38.9597 378.282 39.4788 384.713 41.8612 386.171C44.2436 387.63 56.1714 389.109 65.1717 389.036C67.7669 389.036 68.6649 388.092 68.6181 386.721C68.2548 387.557 67.2634 388.076 65.3326 388.092Z" fill="black"/>
</g>
<defs>
<linearGradient id="paint0_linear" x1="115.743" y1="224.959" x2="277.753" y2="224.959" gradientUnits="userSpaceOnUse">
<stop stop-color="#808080" stop-opacity="0.25"/>
<stop offset="0.54" stop-color="#808080" stop-opacity="0.12"/>
<stop offset="1" stop-color="#808080" stop-opacity="0.1"/>
</linearGradient>
<clipPath id="clip0">
<rect width="524" height="410" fill="white"/>
</clipPath>
</defs>
</svg>
