<svg width="261" height="239" viewBox="0 0 261 239" fill="none" xmlns="http://www.w3.org/2000/svg">
<g clip-path="url(#clip0)">
<path d="M249.021 200.296C239.294 192.061 226.177 188.503 215.249 182.34C196.702 171.822 175.599 161.392 158.893 148.182C117.446 115.404 119.629 76.4449 125.438 28.5541C126.601 18.9635 123.709 10.3556 115.592 4.5403C104.484 -3.42077 90.4031 -1.24392 87.5297 13.7639C83.6798 33.9154 95.6773 59.8448 97.083 80.3633C98.7063 104.116 96.2558 128.235 87.8469 150.576C81.8823 166.417 71.8315 182.383 60.9721 195.376C54.4415 203.2 18.1813 224.067 30.8755 236.27C43.8744 248.765 78.5797 214.862 86.8704 206.478C90.5959 202.715 110.785 171.455 119.847 154.103C123.137 147.796 124.965 143.324 123.989 142.677C124.63 143.1 125.127 143.461 125.494 143.921C143.363 166.299 158.794 192.589 180.363 211.597C194.867 224.372 213.178 222.021 230.817 219.464C242.049 217.829 265.727 214.433 249.021 200.296Z" fill="#8900CE"/>
<path d="M144.831 114.36C148.376 114.036 151.647 112.593 154.682 110.516C170.841 99.4512 186.993 88.2933 200.421 73.8079C203.568 70.3995 206.46 66.5807 208.706 62.5193C212.736 55.2113 211.473 49.6199 205.136 44.1156C199.694 39.3949 193.088 37.6907 186.091 37.0128C174.784 35.9057 166.22 41.466 162.986 52.2632C162.202 54.8879 161.648 57.6059 161.207 60.3114C159.615 70.0077 156.044 78.8831 150.497 86.9872C146.298 93.1321 142.05 99.246 137.952 105.459C137.28 106.479 136.72 107.58 136.154 108.75C135.252 110.622 138.947 114.894 144.831 114.36Z" fill="#8900CE"/>
<path d="M40.7274 98.1513C48.788 103.189 53.0608 110.304 55.9778 118.931C57.0787 122.19 58.957 125.853 61.6065 127.781C66.5511 131.364 72.298 131.457 78.0387 128.571C81.0365 127.066 83.5057 125.269 85.2783 122.924C88.3632 118.844 87.6853 112.208 86.9265 109.626C86.46 108.053 85.9438 106.504 85.2036 105.074C76.7575 88.6789 59.523 85.4571 44.739 78.6653C43.5324 78.1118 40.8518 79.1878 39.7198 80.3446C35.3288 84.8538 35.4843 94.8736 40.7274 98.1513Z" fill="#8900CE"/>
</g>
<rect y="134.87" width="246.633" height="59.6257" transform="rotate(-12.0169 0 134.87)" fill="white"/>
<path d="M60.5186 139.465L63.7716 141.145L58.3049 151.575L69.7256 160.791L64.3559 161.981L55.3358 154.137L57.4149 163.519L53.1588 164.462L48.2975 142.526L52.5536 141.582L54.5887 150.766L60.5186 139.465ZM69.8451 144.936C70.1876 144.7 70.5831 144.463 71.0318 144.225C71.4907 143.985 71.9784 143.754 72.4948 143.533C73.0192 143.299 73.5645 143.088 74.1307 142.898C74.707 142.707 75.2952 142.544 75.8952 142.411C76.7393 142.224 77.5421 142.116 78.3037 142.086C79.0754 142.053 79.7391 142.136 80.2949 142.332C80.8506 142.529 81.3244 142.862 81.7162 143.33C82.1057 143.788 82.3884 144.413 82.5642 145.206L83.9367 151.4C84.0944 152.112 84.2404 152.746 84.3745 153.303C84.5064 153.85 84.6462 154.385 84.7939 154.907C84.857 155.096 84.9168 155.269 84.9732 155.427C85.0274 155.575 85.0815 155.723 85.1357 155.871C85.1977 156.007 85.262 156.153 85.3286 156.309C85.4053 156.462 85.4905 156.63 85.5842 156.812C84.9852 157.094 84.3851 157.371 83.7839 157.643C83.1928 157.913 82.5905 158.18 81.9768 158.444C81.8018 158.184 81.6461 157.914 81.5095 157.635C81.3809 157.344 81.2483 157.01 81.1118 156.635L80.883 156.686C80.6082 157.131 80.3199 157.515 80.018 157.838C79.7161 158.161 79.3889 158.441 79.0362 158.679C78.6836 158.918 78.3055 159.113 77.9021 159.267C77.4986 159.42 77.0681 159.548 76.6104 159.649C75.9087 159.805 75.2387 159.862 74.6003 159.823C73.9643 159.793 73.3842 159.655 72.8601 159.408C72.3461 159.159 71.9034 158.798 71.532 158.326C71.1685 157.841 70.9067 157.238 70.7467 156.515C70.6115 155.905 70.5519 155.348 70.568 154.843C70.5943 154.335 70.6827 153.868 70.8332 153.439C70.9837 153.011 71.1902 152.619 71.4525 152.262C71.7148 151.905 72.0207 151.576 72.37 151.274C73.0686 150.672 73.8891 150.186 74.8316 149.817C75.7719 149.438 76.7505 149.135 77.7675 148.91L79.0794 148.619L78.6399 146.636C78.5565 146.26 78.4302 145.978 78.2608 145.792C78.0994 145.593 77.9045 145.46 77.6763 145.393C77.4583 145.324 77.2137 145.304 76.9425 145.332C76.6691 145.35 76.3798 145.393 76.0747 145.46C75.251 145.643 74.4407 145.934 73.6439 146.335C72.8551 146.723 72.1131 147.154 71.4179 147.628L69.8451 144.936ZM79.5764 150.862L79.2713 150.929C78.5515 151.1 77.8723 151.309 77.2338 151.557C76.6032 151.793 76.0646 152.083 75.6182 152.427C75.1717 152.771 74.8387 153.171 74.6192 153.625C74.4077 154.066 74.3662 154.577 74.4946 155.157C74.6366 155.797 74.929 156.25 75.3717 156.515C75.8246 156.777 76.3867 156.834 77.0579 156.685C77.3732 156.615 77.6896 156.503 78.0072 156.347C78.3225 156.181 78.626 155.986 78.9176 155.761C79.207 155.526 79.4681 155.26 79.7011 154.963C79.934 154.666 80.1234 154.341 80.2694 153.989L79.5764 150.862ZM91.6771 142.131C91.9 141.548 92.1477 141.029 92.4203 140.574C92.7007 140.106 93.0162 139.7 93.3667 139.356C93.725 138.999 94.1348 138.705 94.5959 138.475C95.0649 138.232 95.5994 138.045 96.1995 137.912C96.8707 137.763 97.4825 137.707 98.035 137.745C98.5852 137.772 99.08 137.887 99.5194 138.088C99.9566 138.279 100.348 138.555 100.695 138.916C101.05 139.264 101.361 139.681 101.628 140.165C101.886 140.653 102.112 141.194 102.309 141.791C102.513 142.375 102.693 143.018 102.848 143.72L104.903 152.995L100.724 153.921L98.4011 143.441C98.2073 142.567 97.8563 141.946 97.3481 141.578C96.85 141.208 96.2552 141.1 95.5637 141.253C95.1772 141.339 94.8161 141.515 94.4804 141.781C94.1549 142.046 93.853 142.369 93.5748 142.75C93.2944 143.122 93.0484 143.529 92.8369 143.97C92.6253 144.412 92.4454 144.852 92.2972 145.29L94.5148 155.297L90.335 156.224L88.168 146.445C87.9855 145.621 87.8232 144.937 87.6812 144.393C87.547 143.835 87.4123 143.348 87.277 142.93C87.2093 142.721 87.1473 142.537 87.0909 142.379C87.0345 142.221 86.9741 142.069 86.9098 141.923C86.8556 141.775 86.7913 141.629 86.7168 141.485C86.6503 141.329 86.569 141.155 86.4731 140.963C87.0958 140.644 87.718 140.346 88.3396 140.07C88.9691 139.781 89.6059 139.501 90.2501 139.23C90.3686 139.428 90.482 139.627 90.5904 139.827C90.6965 140.017 90.7969 140.229 90.8917 140.464C90.9842 140.689 91.0772 140.941 91.1709 141.219C91.2645 141.497 91.3671 141.815 91.4787 142.175L91.6771 142.131ZM107.957 127.56C108.303 127.483 108.643 127.477 108.977 127.542C109.322 127.604 109.632 127.728 109.908 127.912C110.191 128.084 110.434 128.313 110.636 128.599C110.836 128.875 110.974 129.185 111.051 129.531C111.129 129.887 111.137 130.232 111.072 130.567C111.007 130.901 110.884 131.211 110.702 131.497C110.53 131.78 110.301 132.023 110.015 132.225C109.739 132.425 109.429 132.563 109.083 132.64C108.727 132.719 108.382 132.726 108.047 132.661C107.713 132.597 107.403 132.473 107.117 132.291C106.831 132.109 106.589 131.88 106.389 131.605C106.189 131.329 106.05 131.013 105.971 130.657C105.894 130.311 105.888 129.971 105.953 129.637C106.015 129.292 106.138 128.982 106.323 128.706C106.505 128.421 106.734 128.178 107.009 127.978C107.285 127.778 107.601 127.639 107.957 127.56ZM111.761 134.831L114.79 148.5C114.95 149.222 115.065 149.884 115.135 150.488C115.212 151.079 115.241 151.643 115.222 152.181C115.202 152.719 115.125 153.237 114.99 153.737C114.868 154.244 114.682 154.754 114.433 155.268C114.251 155.65 114.022 156.085 113.746 156.573C113.473 157.071 113.113 157.663 112.667 158.348L109.486 156.845L109.923 155.932C110.148 155.455 110.341 155.002 110.502 154.571C110.673 154.138 110.795 153.679 110.869 153.193C110.945 152.718 110.968 152.195 110.938 151.626C110.918 151.054 110.823 150.387 110.654 149.624L107.581 135.757L111.761 134.831ZM118.025 125.329C118.371 125.252 118.711 125.246 119.046 125.311C119.39 125.373 119.7 125.497 119.976 125.681C120.259 125.853 120.502 126.082 120.704 126.368C120.904 126.643 121.042 126.954 121.119 127.3C121.198 127.656 121.205 128.001 121.14 128.336C121.076 128.67 120.952 128.98 120.77 129.266C120.598 129.549 120.369 129.792 120.083 129.994C119.808 130.194 119.497 130.332 119.151 130.409C118.795 130.488 118.45 130.495 118.116 130.43C117.781 130.366 117.471 130.242 117.185 130.06C116.9 129.878 116.657 129.649 116.457 129.373C116.257 129.098 116.118 128.782 116.039 128.426C115.962 128.08 115.956 127.74 116.021 127.406C116.083 127.061 116.207 126.751 116.391 126.475C116.573 126.19 116.802 125.947 117.078 125.747C117.353 125.547 117.669 125.408 118.025 125.329ZM121.814 132.603L125.33 148.468L121.15 149.395L117.634 133.53L121.814 132.603ZM143.643 121.044C145.473 120.639 147.081 120.576 148.466 120.856C149.849 121.125 151.042 121.672 152.046 122.495C153.06 123.316 153.895 124.384 154.549 125.701C155.201 127.008 155.712 128.495 156.082 130.163C156.375 131.485 156.542 132.744 156.583 133.941C156.622 135.127 156.505 136.236 156.232 137.267C155.969 138.296 155.536 139.23 154.932 140.068C154.326 140.896 153.525 141.612 152.528 142.217C153.077 142.48 153.571 142.712 154.01 142.913C154.452 143.124 154.887 143.305 155.315 143.456C155.743 143.607 156.185 143.722 156.64 143.802C157.098 143.893 157.621 143.943 158.209 143.951C158.209 144.239 158.204 144.507 158.195 144.754C158.196 144.999 158.185 145.237 158.161 145.466C158.139 145.705 158.102 145.948 158.05 146.195C158.008 146.439 157.956 146.706 157.892 146.998C157.314 146.987 156.801 146.962 156.355 146.922C155.919 146.88 155.499 146.813 155.094 146.722C154.69 146.63 154.279 146.508 153.861 146.355C153.443 146.202 152.968 146.009 152.436 145.774C151.904 145.54 151.292 145.26 150.601 144.933C149.91 144.606 149.088 144.222 148.137 143.782C146.418 144.11 144.901 144.126 143.587 143.83C142.273 143.535 141.13 142.977 140.159 142.157C139.188 141.338 138.379 140.285 137.731 138.999C137.093 137.71 136.59 136.232 136.22 134.564C135.841 132.856 135.676 131.265 135.723 129.793C135.78 128.319 136.091 127.001 136.656 125.841C137.23 124.679 138.088 123.689 139.23 122.87C140.372 122.052 141.842 121.443 143.643 121.044ZM144.336 124.172C143.268 124.408 142.411 124.779 141.766 125.285C141.13 125.789 140.671 126.435 140.387 127.223C140.111 127.999 139.995 128.921 140.039 129.989C140.082 131.046 140.253 132.252 140.552 133.604C140.852 134.957 141.207 136.126 141.618 137.113C142.027 138.089 142.521 138.876 143.101 139.473C143.69 140.057 144.378 140.444 145.167 140.632C145.965 140.817 146.899 140.792 147.966 140.555C149.024 140.321 149.872 139.957 150.509 139.464C151.155 138.958 151.615 138.317 151.892 137.541C152.178 136.763 152.299 135.84 152.254 134.772C152.22 133.702 152.052 132.486 151.75 131.123C151.448 129.76 151.086 128.586 150.665 127.602C150.255 126.615 149.755 125.83 149.167 125.245C148.589 124.659 147.901 124.278 147.105 124.102C146.316 123.914 145.393 123.937 144.336 124.172ZM173.604 121.126L175.775 130.92C175.957 131.744 176.116 132.434 176.25 132.991C176.392 133.536 176.53 134.017 176.666 134.435C176.733 134.644 176.795 134.828 176.852 134.986C176.908 135.145 176.964 135.298 177.018 135.446C177.082 135.591 177.147 135.742 177.214 135.898C177.291 136.052 177.376 136.22 177.47 136.402C176.847 136.721 176.221 137.025 175.591 137.314C174.97 137.591 174.337 137.864 173.693 138.135C173.564 137.939 173.447 137.747 173.341 137.557C173.242 137.355 173.147 137.141 173.054 136.916C172.96 136.681 172.866 136.425 172.772 136.147C172.678 135.869 172.576 135.55 172.464 135.19L172.266 135.234C172.043 135.817 171.791 136.343 171.511 136.81C171.238 137.265 170.923 137.671 170.564 138.028C170.214 138.373 169.803 138.661 169.332 138.893C168.873 139.134 168.343 139.32 167.743 139.453C166.472 139.735 165.414 139.703 164.569 139.357C163.732 138.998 163.046 138.382 162.511 137.508C162.196 137.002 161.925 136.427 161.697 135.784C161.469 135.141 161.268 134.428 161.095 133.645L159.036 124.355L163.216 123.428L165.542 133.924C165.735 134.798 166.081 135.421 166.579 135.79C167.088 136.158 167.688 136.265 168.379 136.112C168.766 136.026 169.122 135.851 169.447 135.587C169.783 135.321 170.091 135.002 170.371 134.63C170.652 134.258 170.898 133.852 171.109 133.41C171.319 132.958 171.497 132.513 171.646 132.075L169.425 122.053L173.604 121.126ZM179.167 111.779C179.513 111.703 179.853 111.697 180.187 111.761C180.532 111.824 180.842 111.947 181.117 112.131C181.401 112.303 181.644 112.532 181.846 112.818C182.046 113.094 182.184 113.405 182.26 113.751C182.339 114.107 182.347 114.452 182.282 114.786C182.217 115.121 182.094 115.431 181.912 115.716C181.74 116 181.511 116.243 181.225 116.445C180.949 116.645 180.639 116.783 180.293 116.859C179.937 116.938 179.592 116.945 179.257 116.881C178.923 116.816 178.613 116.693 178.327 116.511C178.041 116.329 177.798 116.1 177.599 115.824C177.399 115.548 177.259 115.232 177.181 114.876C177.104 114.531 177.098 114.19 177.163 113.856C177.225 113.512 177.348 113.201 177.533 112.926C177.715 112.64 177.944 112.397 178.219 112.198C178.495 111.998 178.811 111.858 179.167 111.779ZM182.956 119.054L186.471 134.919L182.292 135.845L178.776 119.98L182.956 119.054ZM192.556 120.127C192.078 120.233 191.655 120.322 191.286 120.393C190.916 120.453 190.553 120.502 190.198 120.538C189.851 120.561 189.49 120.567 189.114 120.554C188.747 120.539 188.323 120.5 187.839 120.436C187.871 119.906 187.913 119.374 187.965 118.84C188.016 118.295 188.065 117.772 188.114 117.271C188.631 117.295 189.072 117.309 189.436 117.314C189.8 117.319 190.144 117.306 190.468 117.277C190.792 117.248 191.128 117.2 191.476 117.134C191.824 117.067 192.242 116.98 192.731 116.872L200.48 115.154L200.991 117.458L195.772 129.657L203.461 127.953L204.137 131.004L191.231 133.864L190.72 131.561L195.927 119.38L192.556 120.127Z" fill="#8900CE"/>
<defs>
<clipPath id="clip0">
<rect width="239" height="239" fill="white" transform="translate(22)"/>
</clipPath>
</defs>
</svg>
