<svg width="100" height="100" viewBox="0 0 100 100" fill="none" xmlns="http://www.w3.org/2000/svg">
<path d="M50 0C22.3857 0 0 22.3857 0 50C0 77.6143 22.3857 100 50 100C77.6143 100 100 77.6143 100 50C99.9679 22.399 77.601 0.0320565 50 0ZM50 96.7742C24.1673 96.7742 3.22581 75.8327 3.22581 50C3.22581 24.1673 24.1673 3.22581 50 3.22581C75.8327 3.22581 96.7742 24.1673 96.7742 50C96.7458 75.821 75.821 96.7458 50 96.7742Z" fill="#FF1616"/>
<path d="M72.8097 27.1904C72.1798 26.5608 71.1589 26.5608 70.529 27.1904L50 47.7194L29.471 27.1904C28.8522 26.5497 27.831 26.5319 27.1903 27.1507C26.5496 27.7694 26.5318 28.7906 27.1506 29.4313C27.1635 29.4448 27.1768 29.4579 27.1903 29.4711L47.7193 50.0001L27.1903 70.5291C26.5496 71.1481 26.5318 72.169 27.1508 72.8098C27.7697 73.4505 28.7907 73.4682 29.4314 72.8493C29.4449 72.8364 29.4581 72.8231 29.471 72.8098L50 52.2807L70.529 72.8098C71.1697 73.4287 72.1907 73.411 72.8097 72.7703C73.4135 72.1453 73.4135 71.1541 72.8097 70.5291L52.2806 50.0001L72.8097 29.4711C73.4393 28.8412 73.4393 27.8202 72.8097 27.1904Z" fill="#FF1616"/>
</svg>
